<?xml version="1.0" standalone="no"?>
<!DOCTYPE svg PUBLIC "-//W3C//DTD SVG 20010904//EN"
 "http://www.w3.org/TR/2001/REC-SVG-20010904/DTD/svg10.dtd">
<svg version="1.0" xmlns="http://www.w3.org/2000/svg"
 width="1024.000000pt" height="1024.000000pt" viewBox="0 0 1024.000000 1024.000000"
 preserveAspectRatio="xMidYMid meet">
<metadata>
Created by potrace 1.11, written by Peter Selinger 2001-2013
</metadata>
<g transform="translate(0.000000,1024.000000) scale(0.100000,-0.100000)"
fill="#000000" stroke="none">
<path d="M4998 9655 c-2 -1 -64 -6 -138 -9 -160 -8 -283 -19 -346 -30 -23 -4
-108 -17 -147 -22 -57 -7 -235 -46 -370 -81 l-137 -36 23 -26 c13 -14 41 -46
63 -70 21 -24 55 -61 74 -81 19 -20 57 -63 85 -96 27 -32 54 -64 60 -70 5 -7
26 -31 44 -54 19 -23 40 -48 46 -54 31 -31 240 -317 315 -431 99 -149 160
-244 160 -249 0 -2 24 -43 53 -92 70 -117 193 -355 246 -474 23 -52 46 -102
51 -112 5 -9 32 -76 60 -150 28 -73 56 -146 63 -163 6 -16 12 -32 13 -35 0 -3
6 -18 12 -33 7 -16 12 -31 12 -35 0 -4 18 -62 40 -130 52 -161 123 -436 146
-562 2 -14 11 -54 19 -90 25 -113 63 -382 80 -565 3 -27 7 -72 10 -100 3 -27
8 -102 11 -165 3 -63 7 -131 9 -150 2 -19 4 -49 4 -65 1 -28 8 -34 89 -75 48
-25 89 -47 92 -50 5 -5 118 -59 280 -133 41 -19 109 -46 150 -61 41 -16 89
-34 105 -41 17 -7 75 -27 130 -45 55 -18 118 -38 140 -46 67 -22 336 -91 385
-98 14 -2 70 -13 125 -24 55 -12 118 -23 140 -26 22 -3 51 -8 65 -10 14 -2 48
-7 75 -11 28 -3 64 -9 81 -11 21 -3 31 -1 31 8 0 17 15 252 19 298 4 55 4 477
-1 560 -4 88 -14 213 -20 261 -2 19 -6 60 -9 92 -14 134 -18 172 -22 178 -2 4
-6 26 -9 50 -3 24 -7 53 -9 64 -2 11 -9 54 -16 95 -7 41 -20 112 -31 157 -10
44 -21 94 -23 110 -6 31 -39 163 -81 317 -14 54 -47 158 -72 230 -25 72 -51
149 -58 171 -16 50 -102 264 -115 287 -6 10 -10 22 -10 27 0 10 -55 131 -140
306 -61 124 -237 446 -250 455 -4 3 -13 17 -21 32 -71 136 -404 594 -525 723
-11 11 -48 54 -84 95 -36 41 -118 129 -183 196 l-118 121 -52 2 c-29 1 -63 3
-75 6 -59 11 -534 28 -544 20z"/>
<path d="M6660 9385 c0 -3 137 -185 165 -220 25 -30 250 -366 269 -400 9 -16
21 -37 26 -45 68 -106 160 -275 268 -495 25 -49 50 -101 57 -115 92 -178 298
-734 365 -985 25 -91 60 -223 65 -245 26 -109 92 -452 110 -575 4 -22 8 -51
11 -65 8 -50 18 -142 29 -270 4 -41 9 -86 11 -100 22 -131 21 -958 -1 -1091
l-5 -26 103 3 c121 3 339 14 382 19 17 2 61 6 98 10 37 3 76 8 85 10 9 1 40 6
67 9 101 13 133 18 255 41 182 34 462 104 648 161 11 3 13 45 8 227 -3 122 -8
231 -10 242 -2 11 -7 58 -10 105 -4 47 -11 110 -16 140 -17 105 -22 135 -25
167 -6 48 -64 321 -81 378 -9 28 -18 64 -21 80 -9 53 -119 377 -171 500 -92
221 -235 504 -328 647 -24 37 -44 69 -44 72 0 7 -116 177 -174 256 -156 212
-315 388 -547 605 -113 107 -137 127 -329 279 -92 73 -386 272 -418 283 -10 3
-24 12 -32 18 -35 28 -307 171 -430 226 -100 44 -380 158 -380 154z"/>
<path d="M2825 9032 c-194 -116 -510 -337 -580 -405 -7 -7 -39 -34 -71 -62
-165 -140 -352 -329 -514 -520 -67 -79 -74 -88 -105 -130 -16 -22 -32 -42 -35
-45 -12 -11 -164 -229 -195 -279 -126 -204 -265 -456 -317 -575 -17 -39 -43
-99 -59 -133 -41 -90 -97 -234 -130 -338 -40 -122 -98 -321 -104 -355 -3 -16
-14 -68 -26 -115 -11 -48 -22 -99 -24 -113 -8 -63 -26 -166 -30 -172 -2 -3 -6
-39 -10 -80 -4 -40 -8 -87 -10 -104 -26 -197 -25 -814 0 -916 3 -8 7 -49 10
-90 4 -41 8 -77 10 -80 2 -3 6 -30 10 -60 4 -30 11 -77 16 -104 5 -27 9 -51
10 -55 0 -3 9 16 20 43 11 27 28 67 38 90 11 22 30 68 44 101 31 75 187 393
226 460 15 28 38 68 51 90 155 275 361 577 568 835 164 204 239 287 482 531
214 215 325 317 475 440 50 40 92 77 93 81 2 5 8 8 13 8 6 0 24 14 42 30 18
17 84 67 147 112 63 46 117 85 120 89 10 12 378 254 448 294 187 107 312 176
422 234 80 42 134 76 132 83 -3 11 -66 122 -115 203 -86 141 -277 406 -380
529 -89 105 -104 122 -152 176 -62 69 -377 380 -384 380 -3 0 -64 -35 -136
-78z"/>
<path d="M4089 7186 c-97 -50 -204 -108 -239 -128 -34 -21 -63 -38 -66 -38
-23 0 -469 -294 -559 -368 -6 -5 -24 -17 -40 -28 -17 -10 -32 -21 -35 -24 -4
-4 -89 -72 -115 -92 -28 -22 -224 -186 -237 -198 -8 -8 -50 -46 -93 -85 -265
-237 -630 -651 -860 -977 -223 -315 -449 -721 -585 -1049 -28 -68 -62 -149
-75 -179 -24 -57 -142 -405 -149 -443 -3 -12 -20 -78 -39 -146 l-35 -123 88
-172 c103 -203 196 -368 256 -454 24 -35 44 -67 44 -71 0 -4 9 -16 20 -26 11
-10 20 -24 20 -31 0 -7 4 -14 8 -16 4 -1 23 -25 42 -53 19 -27 40 -56 47 -65
7 -8 26 -33 42 -55 17 -22 34 -44 38 -50 63 -81 79 -102 89 -110 6 -5 45 -50
87 -100 42 -49 119 -132 170 -184 l95 -94 46 149 c26 82 51 160 57 173 5 13
30 78 56 145 89 235 304 704 345 753 7 9 13 19 12 22 -1 3 4 15 11 26 49 80
75 126 75 130 0 3 12 24 27 48 15 23 32 51 38 62 23 41 195 303 216 329 5 6
41 56 81 111 59 83 162 215 203 261 6 6 24 28 40 50 17 21 39 47 50 58 11 12
54 59 95 106 143 162 480 491 585 571 17 13 32 26 35 29 11 11 199 159 275
215 44 33 85 65 91 70 6 6 84 57 172 115 l161 105 -4 125 c-5 116 -10 193 -20
295 -2 22 -7 67 -10 100 -3 33 -8 67 -10 75 -2 8 -7 42 -10 75 -4 32 -8 62
-10 65 -1 3 -6 28 -9 55 -4 28 -14 84 -22 125 -9 41 -18 89 -21 105 -12 71
-88 352 -135 495 -57 175 -148 411 -157 408 -3 0 -85 -42 -182 -92z"/>
<path d="M5080 4558 c-41 -26 -88 -55 -103 -63 -28 -16 -197 -134 -207 -145
-3 -3 -18 -14 -35 -24 -25 -17 -160 -121 -175 -136 -3 -3 -27 -23 -55 -45 -27
-21 -68 -56 -90 -76 -22 -21 -53 -50 -70 -65 -116 -104 -321 -313 -410 -418
-27 -33 -57 -66 -66 -75 -8 -9 -29 -34 -45 -56 -16 -22 -31 -42 -34 -45 -3 -3
-24 -27 -45 -55 -22 -27 -44 -53 -48 -56 -11 -8 242 -174 434 -287 128 -74
436 -234 554 -288 100 -45 226 -97 335 -139 69 -26 134 -51 145 -55 11 -4 23
-8 27 -9 4 -1 67 -22 140 -47 145 -48 456 -133 583 -159 44 -9 118 -25 165
-35 47 -10 108 -22 135 -25 28 -4 61 -8 75 -10 155 -24 179 -27 300 -39 25 -3
73 -8 108 -11 249 -26 805 -26 962 0 14 2 57 7 95 10 39 4 131 15 205 26 74
12 146 22 160 24 121 17 658 144 666 158 0 1 35 52 76 112 91 132 189 291 248
400 47 87 160 312 160 319 0 3 13 33 29 68 64 141 172 446 216 613 14 55 28
108 31 117 4 14 0 15 -28 8 -18 -5 -44 -11 -58 -14 -14 -2 -55 -11 -93 -20
-37 -9 -79 -18 -95 -21 -15 -3 -38 -7 -52 -10 -14 -3 -50 -9 -80 -15 -66 -12
-97 -18 -130 -25 -14 -3 -43 -7 -65 -10 -22 -2 -56 -7 -75 -10 -31 -4 -70 -9
-150 -20 -25 -4 -105 -12 -190 -20 -25 -2 -76 -6 -115 -10 -241 -22 -574 -18
-845 10 -19 2 -66 6 -105 10 -64 6 -144 16 -235 30 -19 3 -64 9 -100 14 -71
11 -117 19 -140 26 -8 3 -33 7 -55 11 -22 3 -42 7 -45 9 -3 2 -24 6 -47 10
-55 8 -436 106 -543 140 -47 14 -89 28 -95 29 -38 8 -132 42 -270 96 -11 5
-47 18 -80 30 -33 12 -73 28 -90 35 -333 143 -406 176 -427 192 -7 5 -51 27
-98 49 l-85 40 -75 -48z"/>
<path d="M3348 2768 c-79 -146 -108 -202 -164 -318 -86 -177 -227 -532 -269
-680 -83 -287 -143 -527 -134 -534 16 -12 223 -126 229 -126 5 0 10 -3 12 -7
5 -12 264 -134 403 -192 311 -128 735 -244 1010 -277 22 -3 47 -7 55 -9 8 -2
42 -7 75 -10 33 -3 74 -8 90 -10 199 -26 733 -27 970 0 60 6 147 17 170 21 11
1 56 8 100 14 44 6 132 23 195 37 63 14 126 27 140 30 72 14 383 107 412 124
10 5 23 9 30 9 7 0 25 6 39 14 14 7 38 16 52 20 15 3 51 17 80 30 28 14 93 42
144 65 110 48 382 188 404 207 8 8 18 14 22 14 3 0 40 23 81 50 42 28 78 50
80 50 6 0 299 210 306 219 3 4 32 28 65 53 33 26 74 58 90 73 l30 25 -40 -5
c-55 -7 -100 -12 -165 -19 -30 -4 -71 -9 -90 -11 -19 -3 -62 -7 -95 -10 -33
-2 -105 -8 -160 -12 -201 -16 -840 -9 -1000 11 -16 2 -65 7 -107 11 -96 8
-110 10 -232 30 -54 8 -114 17 -132 20 -32 4 -128 21 -169 29 -136 29 -273 61
-330 76 -38 10 -113 31 -165 45 -105 28 -418 130 -465 151 -16 7 -66 27 -110
44 -44 17 -89 34 -100 39 -28 12 -224 98 -259 113 -17 7 -125 61 -240 119
-227 114 -491 268 -703 411 -73 48 -135 88 -137 88 -3 0 -11 -10 -18 -22z"/>
</g>
</svg>
